<svg width="32" height="32" viewBox="0 0 32 32" fill="none" xmlns="http://www.w3.org/2000/svg">
<path d="M9.309 4H19.5C20.2223 4 20.9375 4.14226 21.6048 4.41866C22.2721 4.69506 22.8784 5.10019 23.3891 5.61091C23.8998 6.12163 24.3049 6.72795 24.5813 7.39524C24.8577 8.06253 25 8.77773 25 9.5V26.16C25.6009 25.8619 26.1066 25.4018 26.46 24.8316C26.8133 24.2614 27.0004 23.6038 27 22.933V9.5C27 7.51088 26.2098 5.60322 24.8033 4.1967C23.3968 2.79018 21.4891 2 19.5 2H12.533C11.8629 2.00035 11.2061 2.18775 10.6367 2.54109C10.0673 2.89443 9.60784 3.39969 9.31 4H9.309ZM8.75 6C7.75544 6 6.80161 6.39509 6.09835 7.09835C5.39509 7.80161 5 8.75544 5 9.75V29C5.00012 29.1847 5.0514 29.3658 5.14814 29.5231C5.24489 29.6804 5.38332 29.8079 5.54808 29.8914C5.71285 29.9749 5.89751 30.0111 6.0816 29.996C6.26569 29.9809 6.44201 29.9152 6.591 29.806L13.536 24.714L21.456 29.84C21.607 29.9379 21.7817 29.9933 21.9615 30.0002C22.1414 30.0071 22.3198 29.9653 22.4779 29.8793C22.636 29.7933 22.768 29.6662 22.8599 29.5115C22.9517 29.3567 23.0002 29.18 23 29V9.75C23 8.75544 22.6049 7.80161 21.9017 7.09835C21.1984 6.39509 20.2446 6 19.25 6H8.75Z" fill="black"/>
</svg>
