<svg width="32" height="32" viewBox="0 0 32 32" fill="none" xmlns="http://www.w3.org/2000/svg">
<path d="M9.308 4C9.60599 3.39939 10.0658 2.89392 10.6356 2.54056C11.2054 2.1872 11.8625 1.99998 12.533 2H19.5C21.4891 2 23.3968 2.79018 24.8033 4.1967C26.2098 5.60322 27 7.51088 27 9.5V22.933C27.0002 23.6036 26.8131 24.261 26.4597 24.831C26.1063 25.401 25.6008 25.8609 25 26.159V9.5C25 8.77773 24.8577 8.06253 24.5813 7.39524C24.3049 6.72795 23.8998 6.12163 23.3891 5.61091C22.8784 5.10019 22.2721 4.69506 21.6048 4.41866C20.9375 4.14226 20.2223 4 19.5 4H9.308ZM8.75 6C7.75544 6 6.80161 6.39509 6.09835 7.09835C5.39509 7.80161 5 8.75544 5 9.75V29C5.00012 29.1847 5.0514 29.3658 5.14814 29.5231C5.24489 29.6804 5.38332 29.8079 5.54808 29.8914C5.71285 29.9749 5.89751 30.0111 6.0816 29.996C6.26569 29.9809 6.44201 29.9152 6.591 29.806L13.536 24.714L21.456 29.84C21.607 29.9379 21.7817 29.9933 21.9615 30.0002C22.1414 30.0071 22.3198 29.9653 22.4779 29.8793C22.636 29.7933 22.768 29.6662 22.8599 29.5115C22.9517 29.3567 23.0002 29.18 23 29V9.75C23 8.75544 22.6049 7.80161 21.9017 7.09835C21.1984 6.39509 20.2446 6 19.25 6H8.75ZM7 9.75C7 8.783 7.784 8 8.75 8H19.25C20.216 8 21 8.783 21 9.75V27.162L14.043 22.66C13.8728 22.5501 13.6732 22.4946 13.4707 22.5006C13.2682 22.5067 13.0723 22.5741 12.909 22.694L7 27.026V9.75Z" fill="black"/>
</svg>
