<svg width="32" height="32" viewBox="0 0 32 32" fill="none" xmlns="http://www.w3.org/2000/svg">
<path d="M13.895 2.77699C14.4826 2.27746 15.2287 2.00317 16 2.00317C16.7713 2.00317 17.5174 2.27746 18.105 2.77699L27.855 11.064C28.2139 11.3691 28.5021 11.7485 28.6999 12.176C28.8976 12.6036 29 13.069 29 13.54V26.5C29 27.163 28.7366 27.7989 28.2678 28.2678C27.7989 28.7366 27.163 29 26.5 29H22.5C21.837 29 21.2011 28.7366 20.7322 28.2678C20.2634 27.7989 20 27.163 20 26.5V20C20 19.4711 19.7905 18.9638 19.4174 18.589C19.0443 18.2141 18.5379 18.0024 18.009 18H13.99C13.4613 18.0026 12.9552 18.2145 12.5822 18.5893C12.2093 18.9641 12 19.4713 12 20V26.5C12 26.8283 11.9353 27.1534 11.8097 27.4567C11.6841 27.76 11.4999 28.0356 11.2678 28.2678C11.0356 28.4999 10.76 28.6841 10.4567 28.8097C10.1534 28.9353 9.8283 29 9.5 29H5.5C4.83696 29 4.20107 28.7366 3.73223 28.2678C3.26339 27.7989 3 27.163 3 26.5V13.54C3.00003 13.069 3.10244 12.6036 3.30014 12.176C3.49785 11.7485 3.78612 11.3691 4.145 11.064L13.895 2.77699Z" fill="black"/>
</svg>
