<svg width="28" height="28" viewBox="0 0 28 28" fill="none" xmlns="http://www.w3.org/2000/svg">
<path d="M8.401 3.5C8.66431 3.04374 9.04315 2.66488 9.4994 2.40156C9.95565 2.13824 10.4732 1.99974 11 2H17.75C20.65 2 23 4.35 23 7.25V20C23.0002 20.5268 22.8616 21.0443 22.5983 21.5005C22.335 21.9568 21.9562 22.3356 21.5 22.599V7.25C21.5 6.25544 21.1049 5.30161 20.4016 4.59835C19.6984 3.89509 18.7446 3.5 17.75 3.5H8.401ZM5 8C5 7.20435 5.31607 6.44129 5.87868 5.87868C6.44129 5.31607 7.20435 5 8 5H17C17.7956 5 18.5587 5.31607 19.1213 5.87868C19.6839 6.44129 20 7.20435 20 8V25.25C20 25.3857 19.9631 25.5189 19.8934 25.6354C19.8236 25.7518 19.7236 25.8472 19.6039 25.9112C19.4842 25.9753 19.3494 26.0056 19.2138 25.9991C19.0782 25.9925 18.9469 25.9493 18.834 25.874L12.5 21.651L6.166 25.874C6.05305 25.9493 5.92179 25.9925 5.7862 25.9991C5.65062 26.0056 5.5158 25.9753 5.39612 25.9112C5.27644 25.8472 5.17638 25.7518 5.10662 25.6354C5.03686 25.5189 5.00001 25.3857 5 25.25V8Z" fill="black"/>
</svg>
