<svg width="28" height="28" viewBox="0 0 28 28" fill="none" xmlns="http://www.w3.org/2000/svg">
<path d="M14 3C16.2104 3.00005 18.3339 3.86106 19.9202 5.40046C21.5064 6.93985 22.4307 9.03658 22.497 11.246L22.501 11.501V16.113L23.915 19.757C23.953 19.855 23.979 19.958 23.992 20.062L24.002 20.22C24.0019 20.5369 23.8843 20.8425 23.6718 21.0777C23.4594 21.3128 23.1673 21.4608 22.852 21.493L22.722 21.5L17.502 21.501C17.4987 22.411 17.1414 23.284 16.5057 23.9351C15.8699 24.5861 15.0057 24.9642 14.0961 24.9892C13.1864 25.0141 12.3028 24.684 11.6323 24.0688C10.9618 23.4535 10.5571 22.6014 10.504 21.693L10.498 21.499L5.275 21.5C5.07782 21.5002 4.88327 21.4547 4.70653 21.3673C4.52978 21.2799 4.37563 21.1528 4.25608 20.996C4.13654 20.8392 4.05484 20.6569 4.01736 20.4633C3.97987 20.2697 3.98762 20.0701 4.04 19.88L4.082 19.756L5.498 16.112V11.502C5.49787 10.3855 5.71769 9.27984 6.14491 8.24827C6.57213 7.2167 7.19838 6.2794 7.98789 5.48989C8.7774 4.70038 9.7147 4.07413 10.7463 3.64691C11.7778 3.21969 12.8835 2.99987 14 3ZM15.996 21.65L16 21.5L11.998 21.502C11.9911 22.0242 12.1887 22.5284 12.5485 22.9069C12.9084 23.2855 13.4019 23.5083 13.9238 23.5279C14.4457 23.5475 14.9546 23.3622 15.3417 23.0117C15.7289 22.6612 15.9637 22.1733 15.996 21.652V21.65ZM14 4.5C12.1849 4.49996 10.4408 5.20485 9.1354 6.46601C7.83003 7.72716 7.06548 9.446 7.003 11.26L6.999 11.501V16.253C6.99898 16.315 6.99125 16.3769 6.976 16.437L6.948 16.525L5.596 20H22.4L21.052 16.526C21.0296 16.4681 21.0145 16.4076 21.007 16.346L21 16.254V11.502C21.0001 10.5826 20.8192 9.67221 20.4675 8.82276C20.1158 7.97331 19.6002 7.20145 18.9502 6.55125C18.3002 5.90106 17.5284 5.38526 16.6791 5.0333C15.8297 4.68135 14.9194 4.50013 14 4.5Z" fill="black"/>
</svg>
