<svg width="28" height="28" viewBox="0 0 28 28" fill="none" xmlns="http://www.w3.org/2000/svg">
<path d="M17.466 22.002C17.3456 22.8354 16.9289 23.5974 16.2924 24.1486C15.6558 24.6998 14.842 25.0032 14 25.0032C13.158 25.0032 12.3442 24.6998 11.7076 24.1486C11.0711 23.5974 10.6544 22.8354 10.534 22.002H17.466ZM14 3C16.2104 3.00005 18.3339 3.86106 19.9202 5.40046C21.5064 6.93985 22.4307 9.03658 22.497 11.246V11.501H22.501V15.613L23.915 19.257C23.953 19.356 23.979 19.458 23.992 19.563L24.002 19.72C24.0022 20.0371 23.8846 20.3429 23.6722 20.5783C23.4597 20.8137 23.1674 20.9618 22.852 20.994L22.722 21H5.275C5.07782 21.0002 4.88327 20.9547 4.70653 20.8673C4.52978 20.7799 4.37563 20.6528 4.25608 20.496C4.13654 20.3392 4.05484 20.1569 4.01736 19.9633C3.97987 19.7697 3.98762 19.5701 4.04 19.38L4.082 19.256L5.498 15.612V11.502C5.49787 10.3855 5.71769 9.27984 6.14491 8.24827C6.57213 7.2167 7.19838 6.2794 7.98789 5.48989C8.7774 4.70038 9.7147 4.07413 10.7463 3.64691C11.7778 3.21969 12.8835 2.99987 14 3Z" fill="black"/>
</svg>
