<svg width="28" height="28" viewBox="0 0 28 28" fill="none" xmlns="http://www.w3.org/2000/svg">
<path d="M12.592 3.495C12.9913 3.17461 13.488 3 14 3C14.512 3 15.0087 3.17461 15.408 3.495L23.158 9.713C23.4208 9.92383 23.6329 10.191 23.7786 10.4947C23.9243 10.7985 24 11.1311 24 11.468V22.748C24 23.3447 23.7629 23.917 23.341 24.339C22.919 24.7609 22.3467 24.998 21.75 24.998H18.75C18.1533 24.998 17.581 24.7609 17.159 24.339C16.7371 23.917 16.5 23.3447 16.5 22.748V16.748C16.5 16.5491 16.421 16.3583 16.2803 16.2177C16.1397 16.077 15.9489 15.998 15.75 15.998H12.25C12.0511 15.998 11.8603 16.077 11.7197 16.2177C11.579 16.3583 11.5 16.5491 11.5 16.748V22.748C11.5 23.3447 11.2629 23.917 10.841 24.339C10.419 24.7609 9.84674 24.998 9.25 24.998H6.25C5.65344 24.998 5.08129 24.7611 4.65936 24.3393C4.23744 23.9176 4.00027 23.3456 4 22.749V11.469C4 10.787 4.31 10.141 4.842 9.714L12.592 3.496V3.495ZM14.469 4.665C14.3359 4.55837 14.1705 4.50027 14 4.50027C13.8295 4.50027 13.6641 4.55837 13.531 4.665L5.781 10.883C5.69334 10.9532 5.62258 11.0423 5.57395 11.1435C5.52531 11.2448 5.50004 11.3557 5.5 11.468V22.748C5.5 23.163 5.836 23.498 6.25 23.498H9.25C9.44891 23.498 9.63968 23.419 9.78033 23.2783C9.92098 23.1377 10 22.9469 10 22.748V16.748C10 16.1513 10.2371 15.579 10.659 15.157C11.081 14.7351 11.6533 14.498 12.25 14.498H15.75C16.3467 14.498 16.919 14.7351 17.341 15.157C17.7629 15.579 18 16.1513 18 16.748V22.748C18 23.163 18.336 23.498 18.75 23.498H21.75C21.9489 23.498 22.1397 23.419 22.2803 23.2783C22.421 23.1377 22.5 22.9469 22.5 22.748V11.468C22.5001 11.3557 22.475 11.2449 22.4265 11.1437C22.378 11.0424 22.3075 10.9533 22.22 10.883L14.47 4.665H14.469Z" fill="black"/>
</svg>
