<svg width="28" height="28" viewBox="0 0 28 28" fill="none" xmlns="http://www.w3.org/2000/svg">
<path d="M15.408 3.49799C15.0087 3.1776 14.512 3.00299 14 3.00299C13.488 3.00299 12.9913 3.1776 12.592 3.49799L4.842 9.71499C4.57921 9.92582 4.36713 10.193 4.22139 10.4967C4.07566 10.8005 4 11.1331 4 11.47V22.75C4 23.3467 4.23705 23.919 4.65901 24.341C5.08097 24.7629 5.65326 25 6.25 25H8.75C9.34674 25 9.91903 24.7629 10.341 24.341C10.7629 23.919 11 23.3467 11 22.75V17.25C11 16.56 11.56 16 12.25 16H15.75C16.44 16 17 16.56 17 17.25V22.75C17 23.3467 17.2371 23.919 17.659 24.341C18.081 24.7629 18.6533 25 19.25 25H21.75C22.3467 25 22.919 24.7629 23.341 24.341C23.7629 23.919 24 23.3467 24 22.75V11.47C24 11.1331 23.9243 10.8005 23.7786 10.4967C23.6329 10.193 23.4208 9.92582 23.158 9.71499L15.408 3.49799Z" fill="black"/>
</svg>
