<svg width="28" height="28" viewBox="0 0 28 28" fill="none" xmlns="http://www.w3.org/2000/svg">
<path d="M21 16C21.7956 16 22.5587 16.3161 23.1213 16.8787C23.6839 17.4413 24 18.2044 24 19V19.715C24 23.292 19.79 26 14 26C8.21 26 4 23.433 4 19.715V19C4 18.2044 4.31607 17.4413 4.87868 16.8787C5.44129 16.3161 6.20435 16 7 16H21ZM21 17.5H7C6.62727 17.5 6.2679 17.6388 5.99189 17.8892C5.71589 18.1397 5.54303 18.484 5.507 18.855L5.5 19V19.715C5.5 22.389 8.889 24.5 14 24.5C18.926 24.5 22.355 22.395 22.495 19.876L22.5 19.715V19C22.5 18.6273 22.3612 18.2679 22.1107 17.9919C21.8603 17.7159 21.516 17.543 21.145 17.507L21 17.5ZM14 2C14.7879 2 15.5681 2.15519 16.2961 2.45672C17.0241 2.75825 17.6855 3.20021 18.2426 3.75736C18.7998 4.31451 19.2417 4.97595 19.5433 5.7039C19.8448 6.43185 20 7.21207 20 8C20 8.78793 19.8448 9.56815 19.5433 10.2961C19.2417 11.0241 18.7998 11.6855 18.2426 12.2426C17.6855 12.7998 17.0241 13.2417 16.2961 13.5433C15.5681 13.8448 14.7879 14 14 14C12.4087 14 10.8826 13.3679 9.75736 12.2426C8.63214 11.1174 8 9.5913 8 8C8 6.4087 8.63214 4.88258 9.75736 3.75736C10.8826 2.63214 12.4087 2 14 2ZM14 3.5C12.8065 3.5 11.6619 3.97411 10.818 4.81802C9.9741 5.66193 9.5 6.80653 9.5 8C9.5 9.19348 9.9741 10.3381 10.818 11.182C11.6619 12.0259 12.8065 12.5 14 12.5C15.1935 12.5 16.3381 12.0259 17.182 11.182C18.0259 10.3381 18.5 9.19348 18.5 8C18.5 6.80653 18.0259 5.66193 17.182 4.81802C16.3381 3.97411 15.1935 3.5 14 3.5Z" fill="black"/>
</svg>
