<svg width="28" height="28" viewBox="0 0 28 28" fill="none" xmlns="http://www.w3.org/2000/svg">
<path d="M8.401 3.5C8.66431 3.04374 9.04315 2.66488 9.4994 2.40156C9.95565 2.13824 10.4732 1.99974 11 2H17.25C18.775 2 20.2375 2.6058 21.3159 3.68414C22.3942 4.76247 23 6.22501 23 7.75V20C23.0002 20.5268 22.8616 21.0443 22.5983 21.5005C22.335 21.9568 21.9562 22.3356 21.5 22.599V7.75C21.5 6.62283 21.0522 5.54183 20.2552 4.7448C19.4582 3.94777 18.3772 3.5 17.25 3.5H8.401ZM8 5C7.20435 5 6.44129 5.31607 5.87868 5.87868C5.31607 6.44129 5 7.20435 5 8V25.25C5.00001 25.3857 5.03686 25.5189 5.10662 25.6354C5.17638 25.7518 5.27644 25.8472 5.39612 25.9112C5.5158 25.9753 5.65062 26.0056 5.7862 25.9991C5.92179 25.9925 6.05305 25.9493 6.166 25.874L12.5 21.651L18.834 25.874C18.9469 25.9493 19.0782 25.9925 19.2138 25.9991C19.3494 26.0056 19.4842 25.9753 19.6039 25.9112C19.7236 25.8472 19.8236 25.7518 19.8934 25.6354C19.9631 25.5189 20 25.3857 20 25.25V8C20 7.20435 19.6839 6.44129 19.1213 5.87868C18.5587 5.31607 17.7956 5 17 5H8ZM6.5 8C6.5 7.60218 6.65803 7.22065 6.93934 6.93934C7.22064 6.65804 7.60217 6.5 8 6.5H17C17.3978 6.5 17.7794 6.65804 18.0607 6.93934C18.342 7.22065 18.5 7.60218 18.5 8V23.849L12.916 20.126C12.7928 20.0439 12.6481 20.0001 12.5 20.0001C12.3519 20.0001 12.2072 20.0439 12.084 20.126L6.5 23.849V8Z" fill="black"/>
</svg>
