<svg width="18" height="18" viewBox="0 0 18 18" fill="none" xmlns="http://www.w3.org/2000/svg">
<path d="M9 9C9 9.22378 8.91111 9.43839 8.75287 9.59662C8.59464 9.75485 8.38003 9.84375 8.15625 9.84375H3.375C3.15122 9.84375 2.93661 9.75485 2.77838 9.59662C2.62014 9.43839 2.53125 9.22378 2.53125 9C2.53125 8.77622 2.62014 8.56161 2.77838 8.40338C2.93661 8.24514 3.15122 8.15625 3.375 8.15625H8.15625C8.38003 8.15625 8.59464 8.24514 8.75287 8.40338C8.91111 8.56161 9 8.77622 9 9ZM3.375 5.34375H12.6562C12.88 5.34375 13.0946 5.25486 13.2529 5.09662C13.4111 4.93839 13.5 4.72378 13.5 4.5C13.5 4.27622 13.4111 4.06161 13.2529 3.90338C13.0946 3.74514 12.88 3.65625 12.6562 3.65625H3.375C3.15122 3.65625 2.93661 3.74514 2.77838 3.90338C2.62014 4.06161 2.53125 4.27622 2.53125 4.5C2.53125 4.72378 2.62014 4.93839 2.77838 5.09662C2.93661 5.25486 3.15122 5.34375 3.375 5.34375ZM7.03125 12.6562H3.375C3.15122 12.6562 2.93661 12.7451 2.77838 12.9034C2.62014 13.0616 2.53125 13.2762 2.53125 13.5C2.53125 13.7238 2.62014 13.9384 2.77838 14.0966C2.93661 14.2549 3.15122 14.3438 3.375 14.3438H7.03125C7.25503 14.3438 7.46964 14.2549 7.62787 14.0966C7.78611 13.9384 7.875 13.7238 7.875 13.5C7.875 13.2762 7.78611 13.0616 7.62787 12.9034C7.46964 12.7451 7.25503 12.6562 7.03125 12.6562ZM16.347 11.2155C16.2686 11.1369 16.1754 11.0745 16.0729 11.0319C15.9703 10.9893 15.8603 10.9674 15.7493 10.9674C15.6382 10.9674 15.5283 10.9893 15.4257 11.0319C15.3232 11.0745 15.23 11.1369 15.1516 11.2155L13.7812 12.5859V7.875C13.7812 7.65122 13.6924 7.43661 13.5341 7.27838C13.3759 7.12014 13.1613 7.03125 12.9375 7.03125C12.7137 7.03125 12.4991 7.12014 12.3409 7.27838C12.1826 7.43661 12.0938 7.65122 12.0938 7.875V12.5859L10.722 11.2134C10.5634 11.0549 10.3485 10.9659 10.1243 10.9659C9.90013 10.9659 9.68515 11.0549 9.52664 11.2134C9.36813 11.3719 9.27908 11.5869 9.27908 11.8111C9.27908 12.0353 9.36813 12.2502 9.52664 12.4087L12.3391 15.2212C12.4175 15.2999 12.5107 15.3623 12.6132 15.4049C12.7158 15.4475 12.8257 15.4694 12.9368 15.4694C13.0478 15.4694 13.1578 15.4475 13.2604 15.4049C13.3629 15.3623 13.4561 15.2999 13.5345 15.2212L16.347 12.4087C16.5052 12.2505 16.5941 12.0359 16.5941 11.8121C16.5941 11.5884 16.5052 11.3738 16.347 11.2155Z" fill="black"/>
</svg>
