<svg width="20" height="20" viewBox="0 0 20 20" fill="none" xmlns="http://www.w3.org/2000/svg">
<path d="M16 9.5C16.117 9.49996 16.2304 9.54097 16.3203 9.61589C16.4102 9.69081 16.4709 9.79489 16.492 9.91L16.5 10V16C16.5001 16.6347 16.2588 17.2457 15.825 17.709C15.3912 18.1724 14.7974 18.4534 14.164 18.495L14 18.5H6C5.36528 18.5001 4.75429 18.2588 4.29096 17.825C3.82762 17.3912 3.54664 16.7974 3.505 16.164L3.5 16V10C3.49977 9.87505 3.54633 9.75455 3.63051 9.66222C3.71469 9.56989 3.83039 9.51241 3.95482 9.50113C4.07926 9.48984 4.20341 9.52555 4.30283 9.60122C4.40225 9.6769 4.46974 9.78705 4.492 9.91L4.5 10V16C4.50002 16.3729 4.63892 16.7324 4.88962 17.0084C5.14032 17.2844 5.48484 17.4572 5.856 17.493L6 17.5H14C14.3727 17.5 14.7321 17.3612 15.0081 17.1108C15.2841 16.8603 15.457 16.516 15.493 16.145L15.5 16V10C15.5 9.86739 15.5527 9.74022 15.6464 9.64645C15.7402 9.55268 15.8674 9.5 16 9.5ZM5.404 6.39L9.646 2.146C9.72886 2.06333 9.83809 2.01234 9.95467 2.00192C10.0713 1.99151 10.1878 2.02232 10.284 2.089L10.354 2.146L14.596 6.389C14.6846 6.47719 14.7369 6.59536 14.7427 6.72022C14.7485 6.84509 14.7073 6.96759 14.6272 7.06358C14.5472 7.15958 14.4341 7.22211 14.3102 7.23884C14.1863 7.25558 14.0607 7.22531 13.958 7.154L13.889 7.096L10.5 3.707V13C10.5 13.117 10.459 13.2304 10.3841 13.3203C10.3092 13.4102 10.2051 13.4709 10.09 13.492L10 13.5C9.88298 13.5 9.76964 13.459 9.67974 13.3841C9.58984 13.3092 9.52907 13.2051 9.508 13.09L9.5 13V3.707L6.11 7.097C6.02721 7.17942 5.91817 7.23025 5.80181 7.24066C5.68545 7.25108 5.56911 7.22041 5.473 7.154L5.403 7.096C5.32033 7.01315 5.26934 6.90391 5.25892 6.78733C5.24851 6.67074 5.27932 6.5542 5.346 6.458L5.404 6.39Z" fill="black"/>
</svg>
