<svg width="20" height="20" viewBox="0 0 20 20" fill="none" xmlns="http://www.w3.org/2000/svg">
<path d="M4 4.5C4 3.83696 4.26339 3.20107 4.73223 2.73223C5.20107 2.26339 5.83696 2 6.5 2H13.5C14.163 2 14.7989 2.26339 15.2678 2.73223C15.7366 3.20107 16 3.83696 16 4.5V17.5C15.9999 17.5922 15.9744 17.6826 15.9261 17.7611C15.8779 17.8397 15.8089 17.9034 15.7267 17.9452C15.6446 17.987 15.5525 18.0053 15.4606 17.998C15.3687 17.9907 15.2806 17.9582 15.206 17.904L10 14.118L4.794 17.904C4.71943 17.9582 4.63133 17.9907 4.53944 17.998C4.44754 18.0053 4.35542 17.987 4.27326 17.9452C4.19109 17.9034 4.12209 17.8397 4.07387 17.7611C4.02564 17.6826 4.00008 17.5922 4 17.5V4.5Z" fill="black"/>
</svg>
