<svg width="20" height="20" viewBox="0 0 20 20" fill="none" xmlns="http://www.w3.org/2000/svg">
<path d="M17.181 2.92695C16.9075 2.63933 16.5792 2.40934 16.2154 2.25055C15.8516 2.09175 15.4598 2.00735 15.0629 2.00231C14.666 1.99728 14.2721 2.07172 13.9044 2.22124C13.5368 2.37077 13.2027 2.59236 12.922 2.87295L3.54699 12.248C3.21931 12.5755 2.99176 12.9897 2.89099 13.442L2.01399 17.392C1.99569 17.474 1.9984 17.5594 2.02185 17.6402C2.0453 17.7209 2.08875 17.7945 2.14816 17.854C2.20758 17.9135 2.28106 17.9571 2.36178 17.9807C2.44251 18.0043 2.52788 18.0071 2.60999 17.989L6.53699 17.116C7.00443 17.0119 7.4325 16.7767 7.77099 16.438L17.129 7.07995C17.6775 6.53119 17.9899 5.78986 17.9996 5.01403C18.0094 4.2382 17.7156 3.48928 17.181 2.92695ZM13.629 3.57995C13.8119 3.3944 14.0297 3.24687 14.2699 3.14587C14.5101 3.04487 14.7679 2.99239 15.0284 2.99145C15.289 2.99052 15.5471 3.04115 15.788 3.14043C16.0289 3.23971 16.2478 3.38567 16.432 3.56991C16.6163 3.75414 16.7622 3.97302 16.8615 4.21391C16.9608 4.45481 17.0114 4.71297 17.0105 4.97352C17.0096 5.23407 16.9571 5.49186 16.8561 5.73204C16.7551 5.97222 16.6076 6.19004 16.422 6.37295L15.751 7.04395L12.958 4.25195L13.629 3.57995ZM12.251 4.95995L15.044 7.75195L7.06399 15.732C6.85994 15.9363 6.60185 16.0782 6.31999 16.141L3.16 16.843L3.868 13.66C3.927 13.393 4.061 13.149 4.254 12.956L12.251 4.95995Z" fill="#747474"/>
</svg>
