<svg width="20" height="20" viewBox="0 0 20 20" fill="none" xmlns="http://www.w3.org/2000/svg">
<path d="M16 11.25C16.3315 11.25 16.6495 11.1183 16.8839 10.8839C17.1183 10.6495 17.25 10.3315 17.25 10C17.25 9.66848 17.1183 9.35054 16.8839 9.11612C16.6495 8.8817 16.3315 8.75 16 8.75C15.6685 8.75 15.3505 8.8817 15.1161 9.11612C14.8817 9.35054 14.75 9.66848 14.75 10C14.75 10.3315 14.8817 10.6495 15.1161 10.8839C15.3505 11.1183 15.6685 11.25 16 11.25ZM11.25 10C11.25 10.3315 11.1183 10.6495 10.8839 10.8839C10.6495 11.1183 10.3315 11.25 10 11.25C9.66848 11.25 9.35054 11.1183 9.11612 10.8839C8.8817 10.6495 8.75 10.3315 8.75 10C8.75 9.66848 8.8817 9.35054 9.11612 9.11612C9.35054 8.8817 9.66848 8.75 10 8.75C10.3315 8.75 10.6495 8.8817 10.8839 9.11612C11.1183 9.35054 11.25 9.66848 11.25 10ZM4 11.25C4.33152 11.25 4.64946 11.1183 4.88388 10.8839C5.1183 10.6495 5.25 10.3315 5.25 10C5.25 9.66848 5.1183 9.35054 4.88388 9.11612C4.64946 8.8817 4.33152 8.75 4 8.75C3.66848 8.75 3.35054 8.8817 3.11612 9.11612C2.8817 9.35054 2.75 9.66848 2.75 10C2.75 10.3315 2.8817 10.6495 3.11612 10.8839C3.35054 11.1183 3.66848 11.25 4 11.25Z" fill="black"/>
</svg>
